<svg xmlns="http://www.w3.org/2000/svg" xmlns:xlink="http://www.w3.org/1999/xlink" width="186" height="34" fill="none" viewBox="0 0 186 34">
  <g clip-path="url(#a)">
    <path fill="#ff9329" d="M24.919.008c-.753 0-1.505.15-2.158.451L.581 10.295c-.402.15-.603.652-.452 1.054 0 .05 0 .05.05.1l3.563 7.026h3.111l-.451-2.46c-.05-.2-.352-1.605-.653-2.609l10.388 3.262c.15.652.301 1.255.552 1.807H33.5q.301-.828.452-1.807l10.337-3.211c-.3 1.003-.602 2.408-.652 2.609l-.452 2.459h3.112l3.513-6.975.05-.05.05-.101c.05-.1.05-.15.05-.25 0-.352-.2-.653-.502-.804L27.278.51c-.803-.35-1.556-.552-2.359-.501"/>
    <path fill="#554b42" d="M24.919 4.624c-.753 0-1.506.15-2.158.452L.581 14.912c-.402.15-.603.652-.452 1.054 0 .05 0 .05.05.1l1.907 3.814h4.115c-.15-.552-.301-1.204-.502-1.857l5.871 1.857h26.798l5.871-1.857c-.2.602-.351 1.305-.502 1.857h4.115l1.907-3.764.05-.05.05-.1c.05-.1.05-.151.05-.251 0-.352-.2-.653-.5-.803L27.226 5.076a6.1 6.1 0 0 0-2.308-.452"/>
    <path fill="#ff9329" d="M49.91 20.432c0 .1 0 .15-.05.25l-.05.101-.05.05-5.37 10.639c-.753 1.455-2.108 1.405-1.907-.05l1.104-6.022c.05-.2.351-1.606.652-2.61l-10.337 3.212c-1.606 10.589-15.557 10.74-17.815 0L5.699 22.74c.301 1.004.602 2.409.652 2.61l1.104 6.022c.251 1.505-1.154 1.555-1.906.05l-5.42-10.69c0-.05-.05-.05-.05-.1-.201-.4 0-.903.401-1.053l22.18-9.836a5.75 5.75 0 0 1 4.467 0l22.18 9.836c.402.2.603.502.603.853"/>
    <path fill="#554b42" d="m32.045 22.289 9.585-3.865c.2-.1.3-.3.25-.552-.05-.1-.1-.2-.25-.25-1.104-.452-2.51-1.004-3.864-1.556-.251-.1-2.61 1.606-2.81 1.756l-4.116 3.312c-.953.904-.1 1.707 1.205 1.155M25.12 31.07a5.018 5.018 0 1 0 0-10.036 5.018 5.018 0 0 0 0 10.037"/>
    <path fill="#7b7169" d="M61.668 4.622c.745.009 1.492-.019 2.237.016.43.025.808.376.825.815.023 1.103.004 2.207.01 3.31.015.28-.453.215-.643.335-1.106.304-2.28.421-3.416.243-.965-.164-1.79-.849-2.195-1.73-.517-1.1-.6-2.36-.473-3.555.114-.999.563-1.977 1.349-2.621C60.21.689 61.396.416 62.5.58c.8.101 1.578.394 2.24.857-.075.466-.344.91-.75 1.161-.724-.532-1.651-.824-2.55-.727a2.08 2.08 0 0 0-1.664 1.499c-.259.915-.26 1.895-.098 2.828.13.747.576 1.51 1.339 1.744.722.237 1.493.089 2.225-.024.009-.637-.023-1.276.025-1.912.017-.15-.27-.04-.39-.074-.392-.021-.822.076-1.171-.15-.335-.312-.128-.791-.038-1.161M71.297 8.518q-.057.225-.225.45a.9.9 0 0 1-.3.337c-.487-.037-.899-.3-1.161-.75a2.5 2.5 0 0 1-1.799.788q-.954 0-1.46-.562c-.3-.375-.488-.825-.488-1.312q0-1.068.675-1.573a2.7 2.7 0 0 1 1.76-.525c.375 0 .75 0 1.087.038v-.375c0-.674-.3-.974-.937-.974q-.674 0-1.91.45a1.73 1.73 0 0 1-.412-1.124 6.7 6.7 0 0 1 2.697-.562c.562-.038 1.087.15 1.536.524.375.337.6.862.6 1.574v2.547c-.038.562.075.862.337 1.05m-3.147-.3c.487-.037.936-.224 1.236-.599V6.533c-.3-.038-.637-.038-.937-.038-.3-.037-.562.075-.786.262a.9.9 0 0 0-.263.675c0 .225.075.45.225.637.15.075.337.15.525.15M72.308 3.76q.055-.225.225-.45a.9.9 0 0 1 .3-.336c.636.074 1.123.524 1.31 1.124.338-.75.862-1.124 1.612-1.124.225 0 .487.037.712.074 0 .525-.113 1.012-.375 1.462a3 3 0 0 0-.562-.075c-.525 0-.9.262-1.236.824V9.23a6 6 0 0 1-.75.075c-.262 0-.524-.037-.786-.075V5.034c0-.6-.15-1.011-.45-1.274M82.273 8.518q-.056.225-.224.45a.9.9 0 0 1-.3.337c-.487-.037-.9-.3-1.161-.75a2.5 2.5 0 0 1-1.799.788q-.956 0-1.46-.562c-.3-.375-.488-.825-.488-1.312q0-1.068.674-1.573a2.6 2.6 0 0 1 1.724-.525c.374 0 .75 0 1.086.038v-.375c0-.674-.3-.974-.936-.974q-.675 0-1.911.45a1.73 1.73 0 0 1-.412-1.124 6.7 6.7 0 0 1 2.697-.562c.562-.038 1.087.15 1.536.524.375.337.6.862.6 1.574v2.547c0 .562.15.862.374 1.05m-3.147-.3c.487-.037.937-.224 1.237-.599V6.533c-.3-.038-.637-.038-.937-.038-.3-.037-.562.075-.787.262a.9.9 0 0 0-.262.675c0 .225.075.45.225.637.15.075.337.15.524.15M83.81 8.48q-.562-.842-.562-2.36c0-1.011.225-1.798.712-2.36.412-.524 1.049-.861 1.723-.861.637 0 1.236.224 1.686.636.225-.3.6-.487.974-.524.15.075.262.225.337.337.075.15.15.262.225.45-.225.187-.337.562-.337 1.086v3.522c0 1.311-.225 2.248-.637 2.81s-1.162.824-2.136.824c-.749 0-1.536-.15-2.248-.412 0-.412.113-.824.375-1.124.525.262 1.087.375 1.686.375.562 0 .937-.15 1.124-.413a1.8 1.8 0 0 0 .3-1.161v-.487c-.45.375-.974.6-1.574.6-.674-.038-1.311-.375-1.648-.937m3.184-1.01V4.583c-.262-.3-.674-.487-1.086-.524-.337 0-.675.225-.824.524a3.14 3.14 0 0 0-.3 1.537c0 .674.075 1.16.262 1.46.112.263.412.45.712.488.524 0 .974-.225 1.236-.6M94.936 6.645h-3.484q0 .618.337 1.124c.187.262.525.412 1.011.412a4.3 4.3 0 0 0 1.649-.45c.262.263.412.6.45.937-.712.487-1.537.75-2.398.712q-1.405 0-2.023-.9c-.412-.599-.6-1.385-.6-2.36q0-1.46.675-2.36c.45-.6 1.161-.936 1.91-.899.825 0 1.462.262 1.911.75.45.524.712 1.198.674 1.91q0 .563-.112 1.124m-2.398-2.66c-.674 0-1.049.525-1.086 1.536h2.173v-.15c0-.337-.075-.712-.263-1.011-.187-.263-.524-.375-.824-.375"/>
    <path fill="#554b42" d="M182.188 18.99q1.803 0 2.807 1.107Q186 21.18 186 23.111v9.942h-3.658V23.73q0-1.107-.386-1.545-.36-.464-1.107-.464-.774 0-1.417.49-.618.462-1.211 1.416v9.427h-3.657V19.402h3.168l.283 1.726q.85-1.056 1.855-1.597 1.03-.54 2.318-.541M171.21 19.402v13.651h-3.658V19.402zm-1.855-7.032q.98 0 1.597.619.644.591.644 1.52 0 .926-.644 1.545-.618.592-1.597.592-.978 0-1.597-.592-.618-.619-.618-1.546t.618-1.52q.619-.618 1.597-.618M160.736 18.99q1.622 0 2.601 1.107 1.005 1.108 1.005 3.014v9.942h-3.658V23.73q0-2.01-1.339-2.009-.722 0-1.262.464-.541.464-1.108 1.442v9.427h-3.657V23.73q0-2.01-1.34-2.009-.721 0-1.262.49-.54.462-1.082 1.416v9.427h-3.657V19.402h3.168l.283 1.7q.773-1.03 1.726-1.571.979-.54 2.241-.541 1.159 0 2.009.592.85.567 1.236 1.623.85-1.107 1.829-1.648 1.005-.567 2.267-.567M142.638 13.967v19.086h-3.22l-.206-1.674q-1.442 2.085-3.915 2.086-2.523 0-3.863-1.932-1.314-1.957-1.314-5.306 0-2.11.67-3.734.695-1.65 1.957-2.576t2.911-.927q1.906 0 3.323 1.365v-6.8zm-6.259 16.768q.799 0 1.417-.386.618-.413 1.185-1.262v-6.105q-.541-.645-1.108-.953-.541-.335-1.262-.335-1.263 0-1.983 1.108-.696 1.107-.696 3.425 0 2.447.618 3.478.644 1.03 1.829 1.03M125.486 33.053l-1.005-3.992h-5.589l-1.005 3.992h-3.94l5.486-17.824h4.61l5.461 17.824zm-5.873-6.8h4.147l-2.086-8.216zM102.257 18.99q2.395 0 3.709 1.906 1.34 1.906 1.339 5.331 0 2.113-.669 3.761-.644 1.623-1.881 2.55-1.21.927-2.859.927-2.24 0-3.58-1.751l-.206 1.34h-3.245V13.966l3.657-.412v7.315q.644-.876 1.623-1.365a4.46 4.46 0 0 1 2.112-.515m-1.391 11.77q2.627 0 2.627-4.533 0-2.498-.644-3.502-.618-1.03-1.803-1.03-1.467 0-2.524 1.75v5.848q.901 1.468 2.344 1.468M92.475 25.918q0 .258-.077 1.417h-8.526q.18 1.854 1.005 2.627t2.24.773a4.8 4.8 0 0 0 1.649-.283q.772-.285 1.674-.902l1.52 2.06q-2.292 1.855-5.177 1.855-3.22 0-4.945-1.932-1.726-1.93-1.726-5.228 0-2.087.72-3.735.749-1.674 2.139-2.627 1.416-.953 3.348-.953 2.91 0 4.533 1.829t1.623 5.1m-3.632-1.03q0-3.4-2.447-3.4-1.132 0-1.777.85-.617.825-.747 2.705h4.971zM79.287 15.23 76.17 33.052h-4.92L68.779 19.12l-2.602 13.934h-4.79L58.295 15.23h3.786l2.035 14.888 2.704-14.888h3.993l2.601 14.888 2.293-14.888z"/>
  </g>
  <defs>
    <clipPath id="a">
      <path fill="#fff" d="M0 0h186v34H0z"/>
    </clipPath>
  </defs>
</svg>
