<svg xmlns="http://www.w3.org/2000/svg" width="414" height="34" fill="none" viewBox="0 0 414 34" aria-label="Logo">
  <path fill="#ff9329" d="M24.92 0c-.75 0-1.5.16-2.16.46L.58 10.3c-.4.15-.6.65-.45 1.05 0 .05 0 .05.05.1l3.56 7.02h3.11l-.45-2.45c-.05-.2-.35-1.61-.65-2.61l10.39 3.26c.15.65.3 1.25.55 1.8H33.5q.3-.82.45-1.8l10.34-3.21c-.3 1-.6 2.4-.65 2.6l-.45 2.46h3.1l3.52-6.97.05-.05.05-.1c.05-.1.05-.15.05-.25a.9.9 0 0 0-.5-.8L27.28.5a5 5 0 0 0-2.36-.5"/>
  <path fill="#554b42" d="M24.92 4.62c-.75 0-1.5.15-2.16.46L.58 14.9c-.4.15-.6.65-.45 1.06 0 .05 0 .05.05.1l1.9 3.81H6.2c-.15-.55-.3-1.2-.5-1.86l5.87 1.86h26.8l5.87-1.86c-.2.6-.35 1.3-.5 1.86h4.11l1.9-3.76.06-.05.05-.1c.05-.1.05-.16.05-.26a.9.9 0 0 0-.5-.8L27.23 5.08a6 6 0 0 0-2.31-.46"/>
  <path fill="#ff9329" d="M49.91 20.43c0 .1 0 .15-.05.25l-.05.1-.05.05-5.37 10.64c-.75 1.46-2.1 1.4-1.9-.05l1.1-6.02c.05-.2.35-1.6.65-2.61L33.9 26c-1.6 10.6-15.55 10.74-17.81 0l-10.4-3.26c.31 1 .61 2.4.66 2.61l1.1 6.02c.26 1.5-1.15 1.56-1.9.05L.13 20.73c0-.05-.05-.05-.05-.1-.2-.4 0-.9.4-1.05l22.18-9.84c1.4-.6 3.06-.6 4.47 0l22.18 9.84q.6.31.6.85"/>
  <path fill="#554b42" d="m32.04 22.29 9.59-3.87q.31-.16.25-.55c-.05-.1-.1-.2-.25-.25l-3.86-1.55c-.26-.1-2.61 1.6-2.81 1.75l-4.12 3.31c-.95.9-.1 1.71 1.2 1.16M25.12 31.07a5.02 5.02 0 1 0 0-10.04 5.02 5.02 0 0 0 0 10.04"/>
  <path fill="#7b7169" d="M61.67 4.62c.74.01 1.5-.02 2.23.02.44.02.81.37.83.81q.01 1.66.01 3.31c.02.28-.45.22-.64.34-1.1.3-2.28.42-3.42.24a3 3 0 0 1-2.2-1.73 6.7 6.7 0 0 1-.47-3.55c.12-1 .57-1.98 1.35-2.63A4 4 0 0 1 62.5.58c.8.1 1.58.4 2.24.86a1.7 1.7 0 0 1-.75 1.16 3.7 3.7 0 0 0-2.55-.73c-.79.12-1.46.73-1.66 1.5-.26.92-.26 1.9-.1 2.83.13.75.57 1.51 1.34 1.74.72.24 1.5.1 2.22-.02.01-.64-.02-1.28.03-1.91.01-.15-.27-.04-.4-.08-.39-.02-.81.08-1.16-.15-.34-.3-.13-.79-.04-1.16M71.3 8.52q-.06.23-.23.45a1 1 0 0 1-.3.34c-.48-.04-.9-.3-1.16-.75a2.5 2.5 0 0 1-1.8.78q-.95 0-1.46-.56a2 2 0 0 1-.49-1.31q0-1.07.68-1.57a2.7 2.7 0 0 1 1.76-.53q.57-.01 1.09.04v-.38q.01-.99-.94-.97a6 6 0 0 0-1.91.45c-.26-.3-.41-.71-.41-1.12a7 7 0 0 1 2.7-.57q.85-.04 1.53.53c.37.34.6.86.6 1.57v2.55c-.04.56.07.86.34 1.05m-3.15-.3a1.7 1.7 0 0 0 1.24-.6V6.53q-.47-.04-.94-.03-.45-.04-.79.26a1 1 0 0 0-.26.67q0 .35.23.64c.15.07.33.15.52.15M72.3 3.76q.07-.22.23-.45a1 1 0 0 1 .3-.34c.64.08 1.13.53 1.31 1.13q.5-1.13 1.61-1.13c.23 0 .5.04.72.08q0 .78-.38 1.46a3 3 0 0 0-.56-.08c-.52 0-.9.27-1.24.83v3.97q-.4.07-.75.08-.39-.01-.78-.08v-4.2q0-.88-.45-1.27M82.27 8.52q-.04.23-.22.45a1 1 0 0 1-.3.34q-.75-.07-1.16-.75a2.5 2.5 0 0 1-1.8.78q-.96 0-1.46-.56a2 2 0 0 1-.49-1.31q0-1.07.68-1.57a2.6 2.6 0 0 1 1.72-.53q.57-.01 1.09.04v-.38q.01-.99-.94-.97a6 6 0 0 0-1.91.45c-.26-.3-.41-.71-.41-1.12a7 7 0 0 1 2.7-.57q.85-.04 1.53.53c.37.34.6.86.6 1.57v2.55c0 .56.15.86.37 1.05m-3.14-.3a1.7 1.7 0 0 0 1.23-.6V6.53q-.46-.04-.93-.03-.45-.04-.8.26a1 1 0 0 0-.25.67q0 .35.22.64c.15.07.34.15.53.15M83.81 8.48a4.2 4.2 0 0 1-.56-2.36q-.01-1.52.71-2.36a2.2 2.2 0 0 1 1.72-.86c.64 0 1.24.22 1.69.64.22-.3.6-.5.97-.53.15.08.27.23.34.34.08.15.15.26.23.45q-.34.3-.34 1.08v3.53q-.01 1.96-.64 2.8c-.41.57-1.16.83-2.13.83-.75 0-1.54-.15-2.25-.41 0-.41.11-.83.37-1.13a4 4 0 0 0 1.69.38q.84-.01 1.12-.41.35-.52.3-1.17v-.48c-.45.37-.97.6-1.57.6a2 2 0 0 1-1.65-.94m3.18-1.01V4.58c-.26-.3-.67-.48-1.08-.52a1 1 0 0 0-.83.52 3 3 0 0 0-.3 1.54q0 1 .27 1.46c.1.26.4.45.7.49.53 0 .98-.23 1.24-.6M94.94 6.65h-3.49q0 .6.34 1.12.28.4 1.01.41a4 4 0 0 0 1.65-.45c.26.26.41.6.45.94-.71.49-1.54.75-2.4.71q-1.4 0-2.02-.9-.6-.9-.6-2.36t.67-2.36c.45-.6 1.16-.94 1.91-.9q1.24 0 1.91.75c.45.52.72 1.2.68 1.91q0 .56-.11 1.13m-2.4-2.66q-1.03 0-1.09 1.53h2.17v-.15c0-.34-.07-.71-.26-1.01-.18-.26-.52-.37-.82-.37"/>
  <path fill="#554b42" d="M182.19 18.99q1.8 0 2.8 1.1 1 1.09 1.01 3.02v9.94h-3.66v-9.32q0-1.1-.38-1.55-.36-.46-1.11-.46-.78 0-1.42.49-.61.46-1.2 1.42v9.42h-3.67V19.4h3.17l.28 1.73a6 6 0 0 1 1.86-1.6 5 5 0 0 1 2.32-.54M171.21 19.4v13.65h-3.66V19.4zm-1.86-7.03q.99 0 1.6.62.65.6.65 1.52 0 .93-.65 1.54-.61.6-1.6.6-.97 0-1.6-.6a2 2 0 0 1-.61-1.54q0-.93.62-1.52.61-.62 1.6-.62M160.74 18.99a3.3 3.3 0 0 1 2.6 1.1q1 1.12 1 3.02v9.94h-3.66v-9.32q0-2.01-1.34-2.01-.72 0-1.26.46t-1.1 1.45v9.42h-3.66v-9.32q0-2.01-1.34-2.01-.72 0-1.26.49-.54.46-1.09 1.42v9.42h-3.65V19.4h3.17l.28 1.7a6 6 0 0 1 1.72-1.57q.98-.54 2.25-.54 1.16 0 2 .6.85.56 1.24 1.61a6 6 0 0 1 1.83-1.64 4.5 4.5 0 0 1 2.27-.57M142.64 13.97v19.08h-3.22l-.2-1.67a4.5 4.5 0 0 1-3.92 2.09 4.4 4.4 0 0 1-3.87-1.94q-1.3-1.95-1.31-5.3 0-2.12.67-3.74a6 6 0 0 1 1.96-2.57 4.8 4.8 0 0 1 2.9-.93q1.92 0 3.33 1.36v-6.8zm-6.26 16.76q.8 0 1.42-.38.6-.42 1.18-1.26v-6.1a4 4 0 0 0-1.1-.96 2.4 2.4 0 0 0-1.27-.34q-1.26 0-1.98 1.11-.7 1.1-.7 3.43 0 2.45.62 3.47a2 2 0 0 0 1.83 1.03M125.49 33.05l-1-3.99h-5.6l-1 4h-3.94l5.48-17.83h4.61l5.46 17.82zm-5.88-6.8h4.15l-2.09-8.21zM102.26 18.99q2.4 0 3.7 1.9 1.35 1.91 1.35 5.34 0 2.1-.67 3.76a6 6 0 0 1-1.89 2.55q-1.2.93-2.85.93-2.26 0-3.58-1.76l-.21 1.34h-3.25V13.97l3.66-.41v7.31q.64-.87 1.63-1.37a4.5 4.5 0 0 1 2.1-.51m-1.4 11.77q2.64 0 2.63-4.53 0-2.5-.64-3.5a2 2 0 0 0-1.8-1.04q-1.47 0-2.53 1.76v5.84q.9 1.47 2.35 1.47M92.48 25.92l-.08 1.41h-8.53q.19 1.86 1 2.63.83.77 2.25.77.87 0 1.65-.28a8 8 0 0 0 1.67-.9l1.52 2.06a8 8 0 0 1-5.18 1.86q-3.22 0-4.94-1.94-1.73-1.93-1.73-5.23 0-2.08.72-3.73.75-1.68 2.14-2.63a6 6 0 0 1 3.35-.95q2.91 0 4.53 1.83t1.63 5.1m-3.64-1.03q0-3.4-2.44-3.4a2.1 2.1 0 0 0-1.78.85 5 5 0 0 0-.75 2.7h4.97zM79.29 15.23l-3.12 17.82h-4.92l-2.47-13.93-2.6 13.93h-4.8L58.3 15.23h3.8l2.03 14.89 2.7-14.9h4l2.6 14.9 2.29-14.9zM408.67 19.35a3.5 3.5 0 0 1 2.73 1.07q.97 1.05.97 2.93V33h-3.55v-9.05q0-1.08-.37-1.5-.36-.45-1.08-.45-.75 0-1.37.48a5 5 0 0 0-1.18 1.37V33h-3.55V19.75h3.08l.27 1.68a6 6 0 0 1 1.8-1.55 5 5 0 0 1 2.25-.53M392.25 19.35q2.97 0 4.65 1.88 1.67 1.85 1.67 5.15a8.4 8.4 0 0 1-.77 3.7 5.6 5.6 0 0 1-2.2 2.45q-1.43.87-3.38.87a6 6 0 0 1-4.67-1.85q-1.68-1.88-1.68-5.18 0-2.1.75-3.67a5.8 5.8 0 0 1 5.63-3.35m0 2.65q-1.35 0-2.03 1.07-.65 1.05-.65 3.3t.65 3.33q.68 1.05 2 1.05 1.33 0 1.98-1.05.67-1.07.67-3.32t-.65-3.3a2.2 2.2 0 0 0-1.97-1.08M383.17 19.75V33h-3.55V19.75zm-1.8-6.82q.95 0 1.55.6.62.57.62 1.47a2 2 0 0 1-.62 1.5q-.6.57-1.55.57t-1.55-.57q-.6-.6-.6-1.5t.6-1.47q.6-.6 1.55-.6M378.05 32.38q-.73.5-1.66.74-.9.28-1.8.28-2.05-.02-3.1-1.17-1.05-1.16-1.05-3.38v-6.6h-1.97v-2.5h1.97v-2.9l3.56-.43v3.33h3.05l-.36 2.5H374v6.52q0 .96.33 1.38t1 .43q.68 0 1.5-.45zM366.57 29.33q0 .77.23 1.15.23.34.75.52l-.75 2.35a4.5 4.5 0 0 1-1.93-.55q-.73-.45-1.12-1.4-1.3 2-3.98 2a4.4 4.4 0 0 1-3.15-1.12 4 4 0 0 1-1.15-2.98q0-2.18 1.58-3.32 1.58-1.16 4.52-1.16h1.53v-.64q0-1.23-.55-1.7-.56-.48-1.83-.48-1.4 0-3.5.7l-.8-2.37a13 13 0 0 1 4.9-.98q2.7 0 3.98 1.17 1.27 1.15 1.27 3.46zm-5.82 1.52q1.5 0 2.35-1.48v-2.52h-1.18q-2.87 0-2.87 2.15 0 .87.42 1.38.45.47 1.28.47M355.15 32.38q-.74.5-1.65.74-.9.28-1.8.28-2.05-.02-3.1-1.17-1.06-1.16-1.06-3.38v-6.6h-1.97v-2.5h1.98v-2.9l3.55-.43v3.33h3.04l-.34 2.5h-2.7v6.52q0 .96.32 1.38.33.42 1 .43.68 0 1.5-.45zM340.14 19.35a3.5 3.5 0 0 1 2.73 1.07q.97 1.05.97 2.93V33h-3.55v-9.05q0-1.08-.37-1.5-.36-.45-1.08-.45-.75 0-1.37.48a5 5 0 0 0-1.18 1.37V33h-3.55V19.75h3.08l.27 1.68a6 6 0 0 1 1.8-1.55 5 5 0 0 1 2.25-.53M330.17 26.08q0 .24-.07 1.37h-8.28q.18 1.8.98 2.55t2.17.75q.85 0 1.6-.27.75-.28 1.63-.88l1.47 2a7.8 7.8 0 0 1-5.02 1.8q-3.13 0-4.8-1.87-1.68-1.89-1.68-5.08 0-2.03.7-3.62a6 6 0 0 1 2.08-2.55q1.37-.93 3.25-.93 2.82 0 4.4 1.77 1.57 1.79 1.57 4.95m-3.52-1q0-3.3-2.38-3.3-1.1 0-1.72.82-.6.79-.73 2.63h4.83zM312.1 19.35q1.59 0 2.53 1.07.98 1.08.98 2.93V33h-3.55v-9.05q0-1.95-1.3-1.95-.7 0-1.23.45-.52.45-1.07 1.4V33h-3.55v-9.05q0-1.95-1.3-1.95-.7 0-1.23.48-.52.45-1.05 1.37V33h-3.55V19.75h3.08l.27 1.65a6 6 0 0 1 1.68-1.52 4.4 4.4 0 0 1 2.17-.53q1.13 0 1.95.57t1.2 1.58a6 6 0 0 1 1.78-1.6 4.4 4.4 0 0 1 2.2-.55M294.28 33h-3.08l-.17-1.77a5 5 0 0 1-1.7 1.64q-1 .53-2.33.53-1.8 0-2.75-1.07a4.5 4.5 0 0 1-.95-3.05v-9.53h3.55v9.07q0 1.05.35 1.5.35.43 1.1.43 1.43 0 2.43-1.73v-9.27h3.55zM277.26 19.35a6.6 6.6 0 0 1 4.4 1.6l-1.55 2.1a5 5 0 0 0-1.28-.73q-.6-.22-1.32-.22-2.83 0-2.83 4.35 0 2.2.73 3.15.72.95 2.07.95.7 0 1.28-.2.57-.23 1.35-.73l1.55 2.23a6.7 6.7 0 0 1-4.35 1.55 6.6 6.6 0 0 1-3.4-.85 5.7 5.7 0 0 1-2.2-2.4 8 8 0 0 1-.78-3.67q0-2.1.78-3.7a6 6 0 0 1 2.2-2.53q1.44-.9 3.35-.9M262.7 19.35q2.98 0 4.66 1.88 1.67 1.85 1.67 5.15a8.4 8.4 0 0 1-.77 3.7 5.6 5.6 0 0 1-2.2 2.45q-1.43.87-3.38.87a6 6 0 0 1-4.67-1.85q-1.68-1.88-1.68-5.18 0-2.1.75-3.67a5.8 5.8 0 0 1 5.63-3.35m0 2.65q-1.35 0-2.02 1.07-.65 1.05-.65 3.3t.65 3.33q.68 1.05 2 1.05t1.98-1.05q.67-1.07.67-3.32t-.65-3.3a2.2 2.2 0 0 0-1.97-1.08M245.47 15.7q4.05 0 6.48 1.85 2.45 1.83 2.45 6.72 0 4.8-2.4 6.78-2.38 1.95-6.1 1.95h-4.95V15.7zm-.85 2.7v11.9h1.5q2.13 0 3.28-1.3 1.17-1.32 1.17-4.73 0-2.35-.6-3.64a3.3 3.3 0 0 0-1.55-1.75 5.4 5.4 0 0 0-2.37-.48zM231.17 15.7V33h-3.67V15.7zM224.06 27.3q0 1.77-.75 3.15a5.4 5.4 0 0 1-2.25 2.18q-1.47.77-3.6.77-3.2 0-4.9-1.65a6 6 0 0 1-1.67-4.45V15.7h3.67v11.43q0 1.75.7 2.62.7.85 2.2.85t2.2-.85q.73-.87.73-2.62V15.7h3.67z"/>
  <path fill="#ada59e" d="M197 15h2v18h-2z"/>
</svg>
