<svg xmlns="http://www.w3.org/2000/svg" xmlns:xlink="http://www.w3.org/1999/xlink" width="32" height="32" fill="none" viewBox="0 0 32 32">
  <g clip-path="url(#a)">
    <rect width="32" height="32" fill="#fff" rx="7"/>
    <use xlink:href="#reuse-0"/>
    <path fill="#ffd952" d="M15.968 6.673c-.41.004-.816.092-1.192.258L2.618 12.31a.44.44 0 0 0-.23.588q.006.026.017.049l1.951 3.856H6.05l-.24-1.344c-.02-.109-.196-.877-.362-1.43l5.69 1.778q.114.53.293.996h9.227a6 6 0 0 0 .236-.996l5.678-1.773a20 20 0 0 0-.36 1.425l-.24 1.344h1.692l1.933-3.821.018-.035.02-.047v-.013a.4.4 0 0 0 .017-.142.435.435 0 0 0-.273-.435L17.22 6.93a3 3 0 0 0-1.251-.257"/>
    <path fill="#49c8fa" d="M15.968 9.218c-.41.004-.816.092-1.192.258L2.618 14.855a.44.44 0 0 0-.23.588q.006.025.017.048l1.059 2.092h2.248c-.07-.3-.163-.669-.265-1.01l3.23 1.01h14.678l3.216-1.004c-.102.34-.192.706-.263 1.004h2.248l1.04-2.057.018-.035.02-.047v-.012a.4.4 0 0 0 .017-.142.435.435 0 0 0-.273-.435L17.22 9.475a3 3 0 0 0-1.251-.257"/>
    <path fill="#ffd952" d="M29.651 17.886a.4.4 0 0 1-.018.142v.012l-.018.047-.019.035-2.942 5.818c-.41.807-1.162.783-1.035-.034l.592-3.307c.02-.109.194-.872.36-1.425l-5.678 1.773c-.892 5.791-8.512 5.888-9.755 0L5.447 19.17c.166.552.342 1.32.362 1.429l.592 3.307c.127.817-.626.841-1.035.034l-2.96-5.853a.2.2 0 0 1-.019-.049.44.44 0 0 1 .23-.588l12.16-5.379a3.03 3.03 0 0 1 2.442 0l12.159 5.38a.435.435 0 0 1 .273.435"/>
    <path fill="#45c8ff" d="m19.884 18.9 5.257-2.117a.223.223 0 0 0 0-.414c-.61-.255-1.365-.548-2.104-.855-.136-.056-1.423.868-1.54.962l-2.267 1.811c-.548.46-.073.904.654.612M16.073 23.708a2.74 2.74 0 1 0 0-5.482 2.74 2.74 0 0 0 0 5.482"/>
    <use xlink:href="#reuse-0"/>
    <path fill="#ff9329" d="M15.968 6.673c-.41.004-.816.092-1.192.258L2.618 12.31a.44.44 0 0 0-.23.588q.006.026.017.049l1.951 3.856H6.05l-.24-1.344c-.02-.109-.196-.877-.362-1.43l5.69 1.778q.114.53.293.996h9.227a6 6 0 0 0 .236-.996l5.678-1.773a20 20 0 0 0-.36 1.425l-.24 1.344h1.692l1.933-3.821.018-.035.02-.047v-.013a.4.4 0 0 0 .017-.142.435.435 0 0 0-.273-.435L17.22 6.93a3 3 0 0 0-1.251-.257"/>
    <path fill="#4e4e4e" d="M15.968 9.218c-.41.004-.816.092-1.192.258L2.618 14.855a.44.44 0 0 0-.23.588q.006.025.017.048l1.059 2.092h2.248c-.07-.3-.163-.669-.265-1.01l3.23 1.01h14.678l3.216-1.004c-.102.34-.192.706-.263 1.004h2.248l1.04-2.057.018-.035.02-.047v-.012a.4.4 0 0 0 .017-.142.435.435 0 0 0-.273-.435L17.22 9.475a3 3 0 0 0-1.251-.257"/>
    <path fill="#ff9329" d="M29.651 17.886a.4.4 0 0 1-.018.142v.012l-.018.047-.019.035-2.942 5.818c-.41.807-1.162.783-1.035-.034l.592-3.307c.02-.109.194-.872.36-1.425l-5.678 1.773c-.892 5.791-8.512 5.888-9.755 0L5.447 19.17c.166.552.342 1.32.362 1.429l.592 3.307c.127.817-.626.841-1.035.034l-2.96-5.853a.2.2 0 0 1-.019-.049.44.44 0 0 1 .23-.588l12.16-5.379a3.03 3.03 0 0 1 2.442 0l12.159 5.38a.435.435 0 0 1 .273.435"/>
    <path fill="#4e4e4e" d="m19.884 18.9 5.257-2.117a.223.223 0 0 0 0-.414c-.61-.255-1.365-.548-2.104-.855-.136-.056-1.423.868-1.54.962l-2.267 1.811c-.548.46-.073.904.654.612M16.073 23.708a2.74 2.74 0 1 0 0-5.482 2.74 2.74 0 0 0 0 5.482"/>
  </g>
  <defs>
    <clipPath id="a">
      <rect width="32" height="32" fill="#fff" rx="7"/>
    </clipPath>
    <path id="reuse-0" fill="#000" d="M19.688 14.934a2.3 2.3 0 0 1-.763-.08l-9.568-2.581a2.3 2.3 0 0 1-.72-.34z"/>
  </defs>
</svg>
